<svg preserveAspectRatio="none" width="100%" height="100%" overflow="visible" style="display: block;" viewBox="0 0 25 25" fill="none" xmlns="http://www.w3.org/2000/svg">
<path id="Vector" d="M18.9771 16.8531C20.5737 14.7196 21.3027 12.0604 21.0175 9.4109C20.7322 6.76142 19.4539 4.31836 17.4398 2.57349C15.4257 0.828617 12.8254 -0.0885031 10.1623 0.00673964C7.49924 0.101982 4.9711 1.20252 3.08681 3.08681C1.20252 4.9711 0.101982 7.49924 0.00673964 10.1623C-0.0885031 12.8254 0.828617 15.4257 2.57349 17.4398C4.31836 19.4539 6.76142 20.7322 9.4109 21.0175C12.0604 21.3027 14.7196 20.5737 16.8531 18.9771L21.9531 24.0771L24.0771 21.9571L18.9771 16.8531ZM10.5771 18.0771C9.09378 18.0771 7.64374 17.6373 6.41037 16.8132C5.177 15.9891 4.21571 14.8177 3.64805 13.4473C3.08039 12.0768 2.93187 10.5688 3.22125 9.11397C3.51064 7.65911 4.22495 6.32274 5.27384 5.27384C6.32274 4.22495 7.65911 3.51064 9.11397 3.22125C10.5688 2.93187 12.0768 3.08039 13.4473 3.64805C14.8177 4.21571 15.9891 5.177 16.8132 6.41037C17.6373 7.64374 18.0771 9.09378 18.0771 10.5771C18.0753 12.5657 17.2845 14.4723 15.8784 15.8784C14.4723 17.2845 12.5657 18.0753 10.5771 18.0771Z" fill="var(--fill-0, white)" fill-opacity="0.82"/>
</svg>
