<svg width="32" height="32" viewBox="0 0 32 32" fill="none" xmlns="http://www.w3.org/2000/svg">
<path d="M12.9994 20.5V11.5511C13.001 11.5414 12.9994 11.5315 12.995 11.523C12.9906 11.5144 12.9836 11.5076 12.9751 11.5037C12.9666 11.4998 12.9571 11.4989 12.9481 11.5014C12.9392 11.5038 12.9312 11.5093 12.9255 11.517C12.9255 11.517 11.7342 13.3107 11 13.8405" stroke="#E5E7EB" stroke-width="2" stroke-linecap="round"/>
<path d="M19.0026 11.5H18.9974C17.342 11.5 16 12.7159 16 14.2157V17.7843C16 19.2841 17.342 20.5 18.9974 20.5H19.0026C20.658 20.5 22 19.2841 22 17.7843V14.2157C22 12.7159 20.658 11.5 19.0026 11.5Z" stroke="#E5E7EB" stroke-width="2"/>
<path d="M29.999 6.49805L28.3798 11.498L22.999 9.98763" stroke="#E5E7EB" stroke-width="2" stroke-linecap="round"/>
<path d="M28.4302 11.0345C27.2286 8.03856 24.9797 5.56495 22.0897 4.0605C19.1998 2.55604 15.8593 2.11994 12.6717 2.83097C9.48405 3.54199 6.65946 5.35326 4.70811 7.93761C2.75676 10.522 1.8073 13.709 2.03123 16.923C2.25516 20.1371 3.63772 23.1662 5.92917 25.4633C8.22063 27.7605 11.2699 29.1741 14.5262 29.4488C17.7825 29.7236 21.0311 28.8414 23.6853 26.9616C26.3395 25.0818 28.2242 22.3284 28.999 19.1986" stroke="#E5E7EB" stroke-width="2" stroke-linecap="round"/>
</svg>
