<svg width="152" height="56" viewBox="0 0 152 56" fill="none" xmlns="http://www.w3.org/2000/svg">
<path d="M12.1997 55.04H-0.000312328V3.71933e-05H12.1997V55.04ZM36.7597 56C33.1597 56 29.9597 55.2667 27.1597 53.8C24.3864 52.3067 22.1997 50.2667 20.5997 47.68C19.0264 45.0667 18.2397 42.08 18.2397 38.72C18.2397 35.36 19.0264 32.3734 20.5997 29.76C22.1997 27.12 24.3864 25.04 27.1597 23.52C29.9597 22 33.1597 21.24 36.7597 21.24C40.3597 21.24 43.533 22 46.2797 23.52C49.0264 25.04 51.173 27.12 52.7197 29.76C54.2664 32.3734 55.0397 35.36 55.0397 38.72C55.0397 42.08 54.2664 45.0667 52.7197 47.68C51.173 50.2667 49.0264 52.3067 46.2797 53.8C43.533 55.2667 40.3597 56 36.7597 56ZM36.7597 46C38.1464 46 39.3464 45.6934 40.3597 45.08C41.373 44.4667 42.1597 43.6 42.7197 42.48C43.2797 41.36 43.5597 40.0934 43.5597 38.68C43.5597 37.24 43.2797 35.96 42.7197 34.84C42.1597 33.72 41.373 32.84 40.3597 32.2C39.3464 31.56 38.1464 31.24 36.7597 31.24C35.373 31.24 34.1597 31.56 33.1197 32.2C32.1064 32.84 31.3064 33.72 30.7197 34.84C30.1597 35.96 29.8797 37.24 29.8797 38.68C29.8797 40.0934 30.1597 41.36 30.7197 42.48C31.3064 43.6 32.1064 44.4667 33.1197 45.08C34.1597 45.6934 35.373 46 36.7597 46ZM79.1678 46.44C80.6878 46.44 81.9411 46.1867 82.9278 45.68C83.9145 45.1467 84.5811 44.72 84.9278 44.4L90.4878 52.64C90.0611 52.9867 89.3278 53.44 88.2878 54C87.2478 54.5334 85.9411 55 84.3678 55.4C82.8211 55.8 81.0478 56 79.0478 56C75.2878 56 71.9811 55.2934 69.1278 53.88C66.2745 52.44 64.0478 50.4134 62.4478 47.8C60.8745 45.1867 60.0878 42.12 60.0878 38.6C60.0878 35.0534 60.8745 31.9867 62.4478 29.4C64.0478 26.8134 66.2745 24.8134 69.1278 23.4C71.9811 21.96 75.2878 21.24 79.0478 21.24C81.0211 21.24 82.7811 21.4534 84.3278 21.88C85.9011 22.28 87.2211 22.7467 88.2878 23.28C89.3545 23.7867 90.1011 24.2267 90.5278 24.6L84.8478 32.92C84.6611 32.7334 84.3145 32.4667 83.8078 32.12C83.3278 31.7734 82.7011 31.4667 81.9278 31.2C81.1545 30.9334 80.2345 30.8 79.1678 30.8C77.8611 30.8 76.6345 31.1334 75.4878 31.8C74.3678 32.4667 73.4611 33.3867 72.7678 34.56C72.0745 35.7334 71.7278 37.08 71.7278 38.6C71.7278 40.12 72.0745 41.48 72.7678 42.68C73.4611 43.8534 74.3678 44.7734 75.4878 45.44C76.6345 46.1067 77.8611 46.44 79.1678 46.44ZM106.95 37.4C106.95 40.0134 107.444 42.1067 108.43 43.68C109.417 45.2267 111.07 46 113.39 46C115.764 46 117.43 45.2267 118.39 43.68C119.377 42.1067 119.87 40.0134 119.87 37.4V22.2H131.87V38.68C131.87 42.2 131.137 45.2667 129.67 47.88C128.23 50.4667 126.137 52.4667 123.39 53.88C120.644 55.2934 117.31 56 113.39 56C109.497 56 106.177 55.2934 103.43 53.88C100.684 52.4667 98.5903 50.4667 97.1503 47.88C95.7103 45.2667 94.9903 42.2 94.9903 38.68V22.2H106.95V37.4ZM151.418 55.04H139.218V3.71933e-05H151.418V55.04Z" fill="#EB588C"/>
</svg>
