<svg width="32" height="32" viewBox="0 0 32 32" fill="none" xmlns="http://www.w3.org/2000/svg">
<path d="M1.99902 6.49805L3.61824 11.498L8.99902 9.98763" stroke="#E5E7EB" stroke-width="2" stroke-linecap="round"/>
<path d="M12.9984 20.5V11.5511C13 11.5414 12.9984 11.5315 12.994 11.523C12.9896 11.5144 12.9826 11.5076 12.9741 11.5037C12.9656 11.4998 12.9561 11.4989 12.9472 11.5014C12.9382 11.5038 12.9302 11.5093 12.9246 11.517C12.9246 11.517 11.7332 13.3107 10.999 13.8405" stroke="#E5E7EB" stroke-width="2" stroke-linecap="round"/>
<path d="M19.0017 11.5H18.9964C17.341 11.5 15.999 12.7159 15.999 14.2157V17.7843C15.999 19.2841 17.341 20.5 18.9964 20.5H19.0017C20.6571 20.5 21.999 19.2841 21.999 17.7843V14.2157C21.999 12.7159 20.6571 11.5 19.0017 11.5Z" stroke="#E5E7EB" stroke-width="2"/>
<path d="M3.56783 11.0345C4.76945 8.03856 7.01835 5.56495 9.90831 4.0605C12.7983 2.55604 16.1388 2.11994 19.3264 2.83097C22.514 3.54199 25.3386 5.35326 27.2899 7.93761C29.2413 10.522 30.1908 13.709 29.9668 16.923C29.7429 20.1371 28.3603 23.1662 26.0689 25.4633C23.7774 27.7605 20.7281 29.1741 17.4718 29.4488C14.2155 29.7236 10.9669 28.8414 8.31273 26.9616C5.65856 25.0818 3.77385 22.3284 2.99902 19.1986" stroke="#E5E7EB" stroke-width="2" stroke-linecap="round"/>
</svg>
